<svg width="208" height="50" viewBox="0 0 208 50" fill="none" xmlns="http://www.w3.org/2000/svg">
<path d="M13.425 43.4439C11.3535 43.4439 9.47734 42.9112 7.79647 41.8459C6.12743 40.7687 4.80167 39.1884 3.81919 37.1051C2.84855 35.0099 2.36323 32.4413 2.36323 29.3991C2.36323 26.2741 2.8663 23.6759 3.87246 21.6044C4.87861 19.5211 6.21621 17.9645 7.88524 16.9347C9.56612 15.893 11.4068 15.3722 13.4073 15.3722C14.9342 15.3722 16.2067 15.6326 17.2247 16.1534C18.2546 16.6624 19.0832 17.3016 19.7105 18.071C20.3497 18.8286 20.8351 19.5743 21.1665 20.3082H21.3973V6.63636H28.9435V43H21.4861V38.6321H21.1665C20.8114 39.3897 20.3083 40.1413 19.6573 40.8871C19.0181 41.621 18.1835 42.2306 17.1537 42.7159C16.1357 43.2012 14.8928 43.4439 13.425 43.4439ZM15.822 37.4247C17.0413 37.4247 18.0711 37.0933 18.9115 36.4304C19.7638 35.7557 20.4148 34.8146 20.8646 33.6072C21.3263 32.3999 21.5571 30.9853 21.5571 29.3636C21.5571 27.742 21.3322 26.3333 20.8824 25.1378C20.4326 23.9422 19.7816 23.0189 18.9293 22.3679C18.077 21.7169 17.0413 21.3913 15.822 21.3913C14.5791 21.3913 13.5316 21.7287 12.6793 22.4034C11.827 23.0781 11.1819 24.0133 10.7439 25.2088C10.3059 26.4044 10.0869 27.7893 10.0869 29.3636C10.0869 30.9498 10.3059 32.3525 10.7439 33.5717C11.1937 34.7791 11.8388 35.7261 12.6793 36.4126C13.5316 37.0874 14.5791 37.4247 15.822 37.4247ZM33.5624 43V15.7273H41.1263V43H33.5624ZM37.3621 12.2116C36.2376 12.2116 35.2729 11.8388 34.4679 11.093C33.6749 10.3355 33.2783 9.42992 33.2783 8.37642C33.2783 7.33475 33.6749 6.44105 34.4679 5.69531C35.2729 4.93774 36.2376 4.55895 37.3621 4.55895C38.4867 4.55895 39.4455 4.93774 40.2385 5.69531C41.0435 6.44105 41.4459 7.33475 41.4459 8.37642C41.4459 9.42992 41.0435 10.3355 40.2385 11.093C39.4455 11.8388 38.4867 12.2116 37.3621 12.2116ZM68.2772 23.5043L61.3525 23.9304C61.2341 23.3385 60.9796 22.8059 60.589 22.3324C60.1984 21.8471 59.6835 21.4624 59.0443 21.1783C58.4169 20.8823 57.6652 20.7344 56.7893 20.7344C55.6174 20.7344 54.629 20.983 53.8241 21.4801C53.0192 21.9654 52.6167 22.6165 52.6167 23.4332C52.6167 24.0843 52.8771 24.6347 53.398 25.0845C53.9188 25.5343 54.8125 25.8954 56.0791 26.1676L61.0151 27.1619C63.6667 27.7064 65.6435 28.5824 66.9455 29.7898C68.2476 30.9972 68.8987 32.5833 68.8987 34.5483C68.8987 36.3357 68.3719 37.9041 67.3184 39.2536C66.2767 40.603 64.8445 41.6565 63.0215 42.4141C61.2105 43.1598 59.1212 43.5327 56.7538 43.5327C53.1435 43.5327 50.267 42.781 48.1245 41.2777C45.9938 39.7625 44.745 37.7029 44.3781 35.0987L51.8177 34.7081C52.0426 35.8089 52.5871 36.6494 53.4512 37.2294C54.3153 37.7976 55.4221 38.0817 56.7715 38.0817C58.0973 38.0817 59.1626 37.8272 59.9676 37.3182C60.7843 36.7973 61.1986 36.1286 61.2105 35.3118C61.1986 34.6252 60.9086 34.063 60.3404 33.625C59.7722 33.1752 58.8963 32.8319 57.7126 32.5952L52.9896 31.6541C50.3262 31.1214 48.3435 30.1982 47.0414 28.8842C45.7512 27.5703 45.1061 25.8954 45.1061 23.8594C45.1061 22.1075 45.5795 20.5982 46.5265 19.3317C47.4853 18.0651 48.8288 17.0885 50.557 16.402C52.2971 15.7154 54.3331 15.3722 56.665 15.3722C60.1096 15.3722 62.8203 16.1001 64.7971 17.5561C66.7857 19.0121 67.9458 20.9948 68.2772 23.5043Z" fill="white"/>
<path d="M81.1713 43.6392C79.4431 43.6392 77.8747 43.3137 76.4661 42.6626C75.0575 41.9998 73.9389 41.0469 73.1103 39.804C72.2817 38.5492 71.8674 37.0341 71.8674 35.2585C71.8674 33.696 72.1751 32.4295 72.7907 31.4588C73.4062 30.4763 74.2289 29.7069 75.2587 29.1506C76.2885 28.5942 77.4249 28.1799 78.6678 27.9077C79.9225 27.6236 81.1832 27.3987 82.4498 27.233C84.1069 27.0199 85.4505 26.8601 86.4803 26.7536C87.522 26.6352 88.2795 26.4399 88.753 26.1676C89.2383 25.8954 89.481 25.4219 89.481 24.7472V24.6051C89.481 22.8532 89.0016 21.492 88.0428 20.5213C87.0958 19.5507 85.6576 19.0653 83.7282 19.0653C81.7277 19.0653 80.1593 19.5033 79.0229 20.3793C77.8865 21.2552 77.0875 22.1903 76.6259 23.1847L72.6486 21.7642C73.3588 20.107 74.3058 18.8168 75.4895 17.8935C76.6851 16.9583 77.9872 16.3073 79.3958 15.9403C80.8162 15.5616 82.213 15.3722 83.5861 15.3722C84.4621 15.3722 85.4682 15.4787 86.6046 15.6918C87.7528 15.893 88.8596 16.3132 89.9249 16.9524C91.0021 17.5916 91.8958 18.5563 92.606 19.8466C93.3162 21.1368 93.6713 22.8651 93.6713 25.0312V43H89.481V39.3068H89.2679C88.9838 39.8987 88.5104 40.532 87.8475 41.2067C87.1846 41.8814 86.3027 42.4555 85.2019 42.929C84.101 43.4025 82.7575 43.6392 81.1713 43.6392ZM81.8105 39.875C83.4677 39.875 84.8645 39.5495 86.0009 38.8984C87.1491 38.2474 88.0132 37.407 88.5932 36.3771C89.1851 35.3473 89.481 34.2642 89.481 33.1278V29.2926C89.3034 29.5057 88.9128 29.701 88.3091 29.8786C87.7173 30.0443 87.0307 30.1922 86.2495 30.3224C85.4801 30.4408 84.7284 30.5473 83.9945 30.642C83.2724 30.7249 82.6865 30.7959 82.2367 30.8551C81.1477 30.9972 80.1297 31.228 79.1827 31.5476C78.2476 31.8554 77.49 32.3229 76.91 32.9503C76.3418 33.5658 76.0577 34.4062 76.0577 35.4716C76.0577 36.9276 76.5963 38.0284 77.6735 38.7741C78.7625 39.508 80.1415 39.875 81.8105 39.875ZM107.499 43L99.1889 15.7273H103.592L109.487 36.608H109.771L115.595 15.7273H120.07L125.822 36.5369H126.107L132.001 15.7273H136.405L128.095 43H123.976L118.01 22.0483H117.584L111.618 43H107.499ZM161.263 21.8352L157.499 22.9006C157.262 22.2732 156.913 21.6636 156.451 21.0717C156.001 20.468 155.386 19.9709 154.604 19.5803C153.823 19.1896 152.823 18.9943 151.604 18.9943C149.935 18.9943 148.544 19.379 147.431 20.1484C146.33 20.906 145.78 21.8707 145.78 23.0426C145.78 24.0843 146.159 24.907 146.916 25.5107C147.674 26.1143 148.857 26.6174 150.467 27.0199L154.516 28.0142C156.954 28.6061 158.771 29.5116 159.967 30.7308C161.162 31.9382 161.76 33.4948 161.76 35.4006C161.76 36.9631 161.31 38.3598 160.411 39.5909C159.523 40.822 158.28 41.7926 156.682 42.5028C155.084 43.2131 153.225 43.5682 151.107 43.5682C148.325 43.5682 146.022 42.9645 144.2 41.7571C142.377 40.5497 141.223 38.786 140.737 36.4659L144.714 35.4716C145.093 36.9394 145.809 38.0402 146.863 38.7741C147.928 39.508 149.319 39.875 151.036 39.875C152.989 39.875 154.539 39.4607 155.688 38.6321C156.848 37.7917 157.428 36.7855 157.428 35.6136C157.428 34.6667 157.096 33.8736 156.433 33.2344C155.77 32.5833 154.752 32.098 153.379 31.7784L148.834 30.7131C146.336 30.1212 144.501 29.2038 143.33 27.9609C142.17 26.7062 141.589 25.1378 141.589 23.2557C141.589 21.7169 142.022 20.3556 142.886 19.1719C143.762 17.9882 144.951 17.0589 146.455 16.3842C147.97 15.7095 149.686 15.3722 151.604 15.3722C154.303 15.3722 156.421 15.964 157.96 17.1477C159.511 18.3314 160.612 19.8939 161.263 21.8352ZM168.068 43V15.7273H172.116V19.9886H172.471C173.039 18.5327 173.957 17.4022 175.223 16.5973C176.49 15.7805 178.011 15.3722 179.786 15.3722C181.586 15.3722 183.083 15.7805 184.279 16.5973C185.486 17.4022 186.427 18.5327 187.102 19.9886H187.386C188.084 18.58 189.132 17.4614 190.529 16.6328C191.925 15.7924 193.6 15.3722 195.553 15.3722C197.992 15.3722 199.986 16.1357 201.537 17.6626C203.088 19.1778 203.863 21.5393 203.863 24.7472V43H199.673V24.7472C199.673 22.7348 199.122 21.2966 198.021 20.4325C196.921 19.5684 195.624 19.1364 194.133 19.1364C192.215 19.1364 190.73 19.7164 189.676 20.8764C188.623 22.0246 188.096 23.4806 188.096 25.2443V43H183.835V24.321C183.835 22.7704 183.332 21.5215 182.325 20.5746C181.319 19.6158 180.023 19.1364 178.437 19.1364C177.348 19.1364 176.33 19.4264 175.383 20.0064C174.448 20.5864 173.69 21.3913 173.11 22.4212C172.542 23.4392 172.258 24.617 172.258 25.9545V43H168.068Z" fill="#00C698"/>
</svg>
